<svg xmlns="http://www.w3.org/2000/svg" width="1024" height="500" viewBox="0 0 1024 500">
  <defs>
    <linearGradient id="bg" x1="0" y1="0" x2="1" y2="1">
      <stop offset="0" stop-color="#070b12"/>
      <stop offset="0.55" stop-color="#101827"/>
      <stop offset="1" stop-color="#07130f"/>
    </linearGradient>
    <linearGradient id="blue" x1="0" y1="0" x2="1" y2="0">
      <stop offset="0" stop-color="#5b8cff"/>
      <stop offset="1" stop-color="#36d98a"/>
    </linearGradient>
    <filter id="soft" x="-20%" y="-20%" width="140%" height="140%">
      <feGaussianBlur stdDeviation="18"/>
    </filter>
    <filter id="shadow" x="-20%" y="-20%" width="140%" height="140%">
      <feDropShadow dx="0" dy="18" stdDeviation="22" flood-color="#000000" flood-opacity="0.38"/>
    </filter>
  </defs>
  <rect width="1024" height="500" fill="url(#bg)"/>
  <g opacity="0.14" stroke="#8aa4c7" stroke-width="1">
    <path d="M0 84H1024M0 168H1024M0 252H1024M0 336H1024M0 420H1024"/>
    <path d="M96 0V500M192 0V500M288 0V500M384 0V500M480 0V500M576 0V500M672 0V500M768 0V500M864 0V500M960 0V500"/>
  </g>
  <circle cx="820" cy="92" r="140" fill="#2b7cff" opacity="0.18" filter="url(#soft)"/>
  <circle cx="320" cy="410" r="120" fill="#36d98a" opacity="0.16" filter="url(#soft)"/>

  <g transform="translate(70 76)">
    <text x="-6" y="0" fill="#dfe7f4" font-family="Inter, Arial, sans-serif" font-size="60" font-weight="700" letter-spacing="0">OU Estimator</text>
    <text x="-4" y="54" fill="#93a4bc" font-family="Inter, Arial, sans-serif" font-size="27" font-weight="500">Mean reversion parameter estimation</text>
    <g transform="translate(-6 108)">
      <rect x="0" y="0" width="448" height="142" rx="18" fill="#151c2b" stroke="#2a3448"/>
      <text x="28" y="46" fill="#59d98c" font-family="JetBrains Mono, monospace" font-size="26" font-weight="700">theta</text>
      <text x="150" y="46" fill="#6da0ff" font-family="JetBrains Mono, monospace" font-size="26" font-weight="700">mu</text>
      <text x="238" y="46" fill="#59d98c" font-family="JetBrains Mono, monospace" font-size="26" font-weight="700">sigma</text>
      <text x="352" y="46" fill="#dfe7f4" font-family="JetBrains Mono, monospace" font-size="26" font-weight="700">t1/2</text>
      <text x="28" y="96" fill="#dfe7f4" font-family="Inter, Arial, sans-serif" font-size="31" font-weight="650">OLS + exact MLE</text>
    </g>
  </g>

  <g transform="translate(556 84)" filter="url(#shadow)">
    <rect x="0" y="0" width="390" height="312" rx="28" fill="#151c2b" stroke="#344157"/>
    <g transform="translate(32 36)">
      <text x="0" y="0" fill="#91a0b7" font-family="Inter, Arial, sans-serif" font-size="20" font-weight="600">Price Series</text>
      <path d="M0 176H334M0 117H334M0 58H334" stroke="#2c3548" stroke-width="1"/>
      <path d="M0 94 C36 46 64 150 100 116 C134 84 151 151 190 102 C231 51 251 157 288 122 C310 102 324 86 334 76" fill="none" stroke="#62a0ff" stroke-width="5" stroke-linecap="round"/>
      <path d="M0 112H334" stroke="#42db8f" stroke-width="3" stroke-dasharray="9 10"/>
      <g transform="translate(0 214)">
        <rect x="0" y="0" width="150" height="64" rx="14" fill="#1f2738" stroke="#344157"/>
        <text x="18" y="25" fill="#91a0b7" font-family="Inter, Arial, sans-serif" font-size="16">Half-life</text>
        <text x="18" y="52" fill="#dfe7f4" font-family="JetBrains Mono, monospace" font-size="24" font-weight="700">1.644</text>
        <rect x="174" y="0" width="160" height="64" rx="14" fill="#1f2738" stroke="#344157"/>
        <text x="192" y="25" fill="#91a0b7" font-family="Inter, Arial, sans-serif" font-size="16">R2 fit</text>
        <text x="192" y="52" fill="#42db8f" font-family="JetBrains Mono, monospace" font-size="24" font-weight="700">0.9142</text>
      </g>
    </g>
  </g>
</svg>
